Coordinates
nRows=8
nColumns=24

# SIMM Motion File Header:
name Coordinates
datacolumns 24
datarows 8
otherdata 1
range 0.38367000000000001000 0.39067000000000002000
endheader
time	pelvis_tx	pelvis_ty	pelvis_tz	pelvis_tilt	pelvis_list	pelvis_rotation	hip_flexion_r	hip_adduction_r	hip_rotation_r	knee_angle_r	ankle_angle_r	subtalar_angle_r	mtp_angle_r	hip_flexion_l	hip_adduction_l	hip_rotation_l	knee_angle_l	ankle_angle_l	subtalar_angle_l	mtp_angle_l	lumbar_extension	lumbar_bending	lumbar_rotation
      0.38367000000000001000	      0.93304005373928089000	      0.95180382600940849000	     -0.25183987976872563000	      3.12314700368019290000	     -0.77655799952248450000	      0.87307097217272400000	     23.89150323147955000000	     -0.33740104969397128000	      3.78277692840580970000	    -30.80788981558702800000	      5.88967984972774340000	     -0.00000000000000033237	      0.00000000000000772979	    -14.99116744229038600000	     -0.40357501497759768000	      9.43346936415430190000	    -10.48728213116567800000	     16.37607651941495100000	     -0.00000000000004602510	     -0.00000000000011611452	    -11.04280027107673600000	     -0.69169233027905408000	     -0.05838613429016083900
      0.38467000000000001000	      0.93459529308732248000	      0.95160236859190139000	     -0.25188862242126764000	      3.12107251399954990000	     -0.78053787057693114000	      0.94736584882613606000	     23.93190352747214400000	     -0.37568816371789077000	      3.75854681880779400000	    -30.51197110568858400000	      5.79521507387546200000	     -0.00000000000000027942	      0.00000000000000770129	    -15.12866356996187500000	     -0.42759938559435473000	      9.49735841559919970000	    -10.42297701428072200000	     16.37389062012112700000	     -0.00000000000004658116	     -0.00000000000011557802	    -11.03755372527448700000	     -0.66929753652074142000	     -0.11357846211964262000
      0.38567000000000001000	      0.93615259994520295000	      0.95139889063176630000	     -0.25193716936379934000	      3.11876226998487520000	     -0.78336321435604583000	      1.02135302902102950000	     23.97190413489276400000	     -0.41559242931912910000	      3.73285739618113150000	    -30.21732015392867900000	      5.70016988619804990000	     -0.00000000000000022643	      0.00000000000000767922	    -15.26548624512779800000	     -0.45063198506678848000	      9.55934140888074420000	    -10.35986902996554100000	     16.37490802198415800000	     -0.00000000000004713312	     -0.00000000000011502794	    -11.03174883887450300000	     -0.64810672839103944000	     -0.16932897096389671000
      0.38667000000000001000	      0.93770990680308330000	      0.95119541267163110000	     -0.25198571630633110000	      3.11645202597020040000	     -0.78618855813515898000	      1.09534020921592280000	     24.01190474231338000000	     -0.45549669492036976000	      3.70716797355446690000	    -29.92266920216877700000	      5.60512469852063780000	     -0.00000000000000017343	      0.00000000000000765715	    -15.40230892029372400000	     -0.47366458453922095000	      9.62132440216228520000	    -10.29676104565036000000	     16.37592542384719600000	     -0.00000000000004768507	     -0.00000000000011447785	    -11.02594395247451700000	     -0.62691592026133913000	     -0.22507947980815174000
      0.38767000000000001000	      0.93927105615609996000	      0.95098886640434521000	     -0.25203377574555325000	      3.11397446320387860000	     -0.78712682911949239000	      1.16880572542647100000	     24.05088383675625300000	     -0.49802164218613770000	      3.67895715038514170000	    -29.63050102929529200000	      5.50939181834367900000	     -0.00000000000000014091	      0.00000000000000769520	    -15.53822890197258900000	     -0.49520663682004967000	      9.67963220422966760000	    -10.23561743008722200000	     16.38051619681125700000	     -0.00000000000004829058	     -0.00000000000011386257	    -11.01944651881427200000	     -0.60768942440334450000	     -0.28188116592286377000
      0.38867000000000002000	      0.94083220550911661000	      0.95078232013705921000	     -0.25208183518477539000	      3.11149690043755720000	     -0.78806510010382580000	      1.24227124163701900000	     24.08986293119912900000	     -0.54054658945190581000	      3.65074632721581600000	    -29.33833285642180400000	      5.41365893816671930000	     -0.00000000000000010840	      0.00000000000000773326	    -15.67414888365145500000	     -0.51674868910087834000	      9.73794000629705180000	    -10.17447381452408300000	     16.38510696977531800000	     -0.00000000000004889609	     -0.00000000000011324730	    -11.01294908515402900000	     -0.58846292854534998000	     -0.33868285203757592000
      0.38967000000000002000	      0.94239726227201770000	      0.95057294229014977000	     -0.25212922113331238000	      3.10880504555430460000	     -0.78706034333604413000	      1.31520154455835560000	     24.12791202378283400000	     -0.58562955894461810000	      3.62030680233775200000	    -29.04902755578119400000	      5.31789290983231750000	     -0.00000000000000007254	      0.00000000000000778168	    -15.80907351363775200000	     -0.53681565039746415000	      9.79231980368934880000	    -10.11519389538591600000	     16.38816673250811100000	     -0.00000000000004947861	     -0.00000000000011265438	    -11.00573522532809900000	     -0.57129309378948501000	     -0.39658969315390391000
      0.39067000000000002000	      0.94396231903491890000	      0.95036356444324044000	     -0.25217660708184941000	      3.10611319067105200000	     -0.78605558656826235000	      1.38813184747969200000	     24.16596111636653900000	     -0.63071252843733050000	      3.58986727745968760000	    -28.75972225514058400000	      5.22212688149791580000	     -0.00000000000000003669	      0.00000000000000783011	    -15.94399814362405000000	     -0.55688261169404996000	      9.84669960108164590000	    -10.05591397624774800000	     16.39122649524090000000	     -0.00000000000005006112	     -0.00000000000011206146	    -10.99852136550216700000	     -0.55412325903362003000	     -0.45449653427023196000
